<?xml version="1.0" encoding="UTF-8" standalone="no"?>
<!DOCTYPE svg PUBLIC "-//W3C//DTD SVG 1.1//EN" "http://www.w3.org/Graphics/SVG/1.1/DTD/svg11.dtd">
<svg width="100%" height="100%" viewBox="0 0 97 97" version="1.1" xmlns="http://www.w3.org/2000/svg" xmlns:xlink="http://www.w3.org/1999/xlink" xml:space="preserve" xmlns:serif="http://www.serif.com/" style="fill-rule:evenodd;clip-rule:evenodd;">
    <g transform="matrix(1,0,0,1,-130.748,-46.3283)">
        <path d="M221.73,94.69C221.73,118.22 202.65,137.3 179.11,137.3C155.57,137.3 136.5,118.22 136.5,94.69C136.5,71.16 155.58,52.08 179.11,52.08C202.64,52.08 221.73,71.16 221.73,94.69" style="fill:rgb(206,199,188);fill-rule:nonzero;"/>
    </g>
    <g transform="matrix(1,0,0,1,-130.748,-46.3283)">
        <path d="M221.73,94.69C221.73,118.22 202.65,137.3 179.11,137.3C155.57,137.3 136.5,118.22 136.5,94.69C136.5,71.16 155.58,52.08 179.11,52.08C202.64,52.08 221.73,71.16 221.73,94.69Z" style="fill:none;fill-rule:nonzero;stroke:rgb(0,82,136);stroke-width:2.79px;"/>
    </g>
    <g transform="matrix(1,0,0,1,-130.748,-46.3283)">
        <path d="M217.85,94.69C217.85,116.09 200.51,133.43 179.11,133.43C157.71,133.43 140.38,116.09 140.38,94.69C140.38,73.29 157.72,55.96 179.11,55.96C200.5,55.96 217.85,73.3 217.85,94.69" style="fill:rgb(0,82,136);fill-rule:nonzero;"/>
    </g>
    <g transform="matrix(1,0,0,1,-130.748,-46.3283)">
        <path d="M215.69,108.54C214.31,108.54 213.06,107.75 212.49,106.51L195.76,70.8L192.78,70.8L210.39,108.54L207.61,108.54L199.34,90.82L190,70.79L180.68,70.79L180.68,73.36L183.58,73.36C186.18,73.36 188.57,74.76 189.79,77.02L178.72,99.25L176.17,104.35L174.77,107.05C174.11,107.98 173.04,108.52 171.89,108.52L164.03,108.52C164.3,109.4 164.71,110.26 165.23,111.02L186.14,111.02L183.55,108.52L182.61,108.52C181.42,108.52 180.32,107.92 179.66,106.96C179.05,106.05 178.92,104.94 179.26,103.93C179.31,103.79 179.37,103.64 179.44,103.5L180.56,101.25L184.41,93.5L197.45,93.5L198.44,95.6L202.22,103.56C202.74,104.64 202.64,105.91 202.01,106.91C201.35,107.92 200.23,108.53 199.02,108.53L187.45,108.53L190.26,111.03L216.87,111.03L216.87,108.53L215.69,108.53L215.69,108.54ZM185.74,90.82L191.19,80.01L196.2,90.82L185.74,90.82Z" style="fill:rgb(206,199,188);fill-rule:nonzero;"/>
    </g>
    <g transform="matrix(1,0,0,1,-130.748,-46.3283)">
        <path d="M198.64,113.59L199.64,113.21C198.27,114.43 196.59,115.26 194.77,115.57C192.55,115.38 190.45,114.54 188.71,113.18C187.82,112.51 186.96,111.8 186.13,111.04L183.54,108.54L179.25,103.94C179.3,103.8 179.36,103.65 179.43,103.51L180.55,101.26L184.85,105.95C185.82,104.82 186.67,103.59 187.4,102.3C187.89,101.5 188.19,100.57 188.26,99.64C188.28,98.83 187.91,98.05 187.25,97.56C186.35,96.95 185.3,96.59 184.22,96.51L184.22,95.87L197.88,95.87L197.88,96.8C196.67,96.89 195.53,97.37 194.63,98.16C193.25,99.3 192.05,100.63 191.04,102.09L188.79,105.12L186.7,107.82L187.44,108.56L190.25,111.06C191.92,112.7 194.08,113.75 196.41,114.07C197.18,114.07 197.93,113.91 198.63,113.61" style="fill:rgb(156,180,210);fill-rule:nonzero;"/>
    </g>
    <g transform="matrix(1,0,0,1,-130.748,-46.3283)">
        <path d="M164.02,108.54C164.29,109.42 164.7,110.28 165.22,111.04C165.48,111.43 165.76,111.79 166.06,112.13C167.68,114.12 170.14,115.23 172.72,115.14C175.26,114.98 177.65,113.83 179.34,111.96L178.44,111.04L182.28,111.04L183.21,111.96L187.21,115.25C188.91,116.47 190.86,117.36 192.9,117.84C192.18,117.99 191.45,118.08 190.71,118.1C188.93,118.16 187.16,117.77 185.59,116.95C184.08,116.08 182.67,115.05 181.39,113.88C178.94,116.41 175.56,117.9 172.02,117.99C168.78,118.05 165.69,116.63 163.68,114.13C162.82,113.21 162.14,112.16 161.61,111.04C161.18,110.15 160.85,109.19 160.66,108.21C160.51,107.49 160.41,106.76 160.4,106.02C160.4,104.74 160.59,103.47 161.01,102.27C161.89,99.86 163.54,97.77 165.7,96.34C165.17,95.57 164.67,94.78 164.21,93.97L164.02,93.64L164,93.6L164.11,93.6C164.97,93.6 165.83,93.54 166.68,93.38L166.99,93.32L167.09,93.47C168.45,95.24 169.85,96.98 171.3,98.69C172.21,99.82 173.16,100.94 174.13,102.01L176.15,104.37L174.75,107.07L172.31,104.36C171.25,103.15 170.2,101.91 169.2,100.65C168.62,99.89 168,99.16 167.34,98.47C164.99,100.18 163.6,102.86 163.55,105.73C163.55,106.39 163.63,107.04 163.78,107.67C163.85,107.97 163.93,108.26 164.02,108.54" style="fill:rgb(156,180,210);fill-rule:nonzero;"/>
    </g>
    <g transform="matrix(1,0,0,1,-130.748,-46.3283)">
        <path d="M171.78,91.02C171.9,91.18 172.02,91.34 172.16,91.49L172.86,92.38C175.41,91.35 177.1,88.95 177.21,86.23C177.27,84.98 176.83,83.78 175.98,82.85C175.8,82.67 175.61,82.5 175.41,82.36L175.39,82.36C175.43,81.27 175.32,80.18 175.07,79.13C176.57,79.31 178.02,79.91 179.2,80.85C180.72,82 181.61,83.79 181.57,85.68L181.55,86.23C181.38,87.84 180.71,89.36 179.64,90.57C178.22,92.17 176.53,93.52 174.64,94.55C175.96,96.15 177.31,97.71 178.7,99.26L177.37,101.92C174.57,98.92 171.92,95.77 169.45,92.49C169.08,92 168.7,91.51 168.34,91.01C168.14,90.76 167.95,90.49 167.77,90.23C166.72,88.67 166.08,86.88 165.89,85.01C165.89,83.38 166.61,81.83 167.88,80.78C169.02,79.83 170.45,79.25 171.92,79.11C172.17,79.93 172.31,80.8 172.33,81.67L172.31,81.67C171.32,81.69 170.36,82.07 169.65,82.76C169.01,83.35 168.64,84.16 168.6,85.02C168.68,85.98 168.97,86.92 169.49,87.75C169.66,88.05 169.84,88.35 170.03,88.64C170.56,89.47 171.13,90.27 171.77,91.03" style="fill:rgb(156,180,210);fill-rule:nonzero;"/>
    </g>
    <g transform="matrix(1,0,0,1,-130.748,-46.3283)">
        <path d="M164.9,90.01L165.38,90.86C164.81,90.95 164.21,90.99 163.63,90.97C163.37,90.97 163.11,90.96 162.84,90.95C162.61,90.28 162.48,89.58 162.48,88.86C162.48,87.44 162.81,86.04 163.43,84.77C163.55,86.59 164.05,88.38 164.9,90" style="fill:rgb(156,180,210);fill-rule:nonzero;"/>
    </g>
    <g transform="matrix(1,0,0,1,-130.748,-46.3283)">
        <path d="M175.42,82.37L175.4,82.37C175.44,81.28 175.33,80.19 175.08,79.14C174.83,78.09 174.97,78.73 174.97,78.73C174.5,77.04 173.67,75.48 172.54,74.15C170.21,71.74 166.9,70.52 163.54,70.8L155.7,70.8L155.7,108.54L153.24,108.54L153.24,70.8L145.42,70.8L145.42,73.37L146.75,73.37C148.71,73.37 150.28,74.92 150.28,76.85L150.28,105.06C150.28,107 148.71,108.54 146.75,108.55L145.42,108.55L145.42,111.05L161.62,111.05C161.19,110.16 160.86,109.2 160.67,108.22L160.64,108.24C159.37,107.67 158.55,106.44 158.55,105.06L158.55,92.64C160.31,93.27 162.16,93.59 164.02,93.61L164.13,93.61C164.99,93.61 165.86,93.55 166.7,93.39L167.01,93.33L167.43,93.23C168.12,93.07 168.8,92.83 169.44,92.53L169.47,92.51C169.1,92.02 168.72,91.53 168.36,91.03C168.16,90.78 167.97,90.51 167.79,90.25C167.02,90.56 166.22,90.78 165.4,90.89C164.83,90.98 164.23,91.02 163.65,91C163.39,91 163.13,90.99 162.86,90.98C161.38,90.9 159.92,90.57 158.56,89.98L158.56,73.39L165.13,73.39C167.08,73.52 168.9,74.42 170.19,75.86C171,76.83 171.59,77.95 171.96,79.13C172.21,79.95 172.35,80.82 172.37,81.69C172.38,81.88 172.38,82.07 172.37,82.28C172.45,84.55 171.68,86.78 170.19,88.52L170.07,88.66C170.6,89.49 171.17,90.29 171.81,91.05L172.36,90.56C174.48,88.37 175.59,85.42 175.45,82.39" style="fill:rgb(206,199,188);fill-rule:nonzero;"/>
    </g>
</svg>
