<?xml version="1.0" encoding="UTF-8" standalone="no"?>
<!DOCTYPE svg PUBLIC "-//W3C//DTD SVG 1.1//EN" "http://www.w3.org/Graphics/SVG/1.1/DTD/svg11.dtd">
<svg width="100%" height="100%" viewBox="0 0 286 12" version="1.1" xmlns="http://www.w3.org/2000/svg" xmlns:xlink="http://www.w3.org/1999/xlink" xml:space="preserve" xmlns:serif="http://www.serif.com/" style="fill-rule:evenodd;clip-rule:evenodd;stroke-linejoin:round;stroke-miterlimit:2;">
    <g transform="matrix(1,0,0,1,-36.87,-148.43)">
        <path d="M36.88,148.7L39.07,148.7C40.33,148.7 41.17,148.75 41.61,148.86C42.24,149.01 42.75,149.33 43.15,149.81C43.55,150.29 43.75,150.89 43.75,151.62C43.75,152.35 43.56,152.96 43.17,153.43C42.78,153.91 42.25,154.23 41.56,154.39C41.06,154.51 40.13,154.57 38.76,154.57L37.97,154.57L37.97,159.68L36.87,159.68L36.87,148.68L36.88,148.7ZM37.98,149.77L37.98,153.5L39.84,153.52C40.59,153.52 41.14,153.45 41.49,153.31C41.84,153.17 42.11,152.95 42.31,152.65C42.51,152.34 42.61,152 42.61,151.62C42.61,151.24 42.51,150.91 42.31,150.61C42.11,150.31 41.85,150.09 41.52,149.96C41.19,149.83 40.66,149.77 39.92,149.77L37.98,149.77Z" style="fill:rgb(0,82,136);fill-rule:nonzero;"/>
    </g>
    <g transform="matrix(1,0,0,1,-36.87,-148.43)">
        <path d="M48.76,148.7L53.89,159.7L52.7,159.7L50.97,156.08L46.23,156.08L44.52,159.7L43.29,159.7L48.48,148.7L48.76,148.7ZM48.62,151.03L46.74,155.01L50.5,155.01L48.62,151.03Z" style="fill:rgb(0,82,136);fill-rule:nonzero;"/>
    </g>
    <g transform="matrix(1,0,0,1,-36.87,-148.43)">
        <path d="M65.68,150.74L64.81,151.41C64.33,150.79 63.76,150.31 63.09,149.99C62.42,149.67 61.68,149.51 60.88,149.51C60,149.51 59.19,149.72 58.44,150.14C57.69,150.56 57.11,151.13 56.7,151.84C56.29,152.55 56.08,153.35 56.08,154.24C56.08,155.58 56.54,156.7 57.46,157.6C58.38,158.5 59.54,158.94 60.94,158.94C62.48,158.94 63.77,158.34 64.8,157.13L65.67,157.79C65.12,158.49 64.44,159.03 63.62,159.41C62.8,159.79 61.88,159.98 60.87,159.98C58.95,159.98 57.43,159.34 56.32,158.06C55.39,156.98 54.92,155.67 54.92,154.14C54.92,152.53 55.48,151.18 56.61,150.08C57.74,148.98 59.15,148.43 60.85,148.43C61.88,148.43 62.8,148.63 63.63,149.04C64.46,149.45 65.13,150.02 65.66,150.75L65.68,150.74Z" style="fill:rgb(0,82,136);fill-rule:nonzero;"/>
    </g>
    <g transform="matrix(1,0,0,1,-36.87,-148.43)">
        <path d="M68.34,148.7L69.46,148.7L69.46,152.83L73.86,148.7L75.34,148.7L70.06,153.63L75.75,159.69L74.29,159.69L69.47,154.57L69.47,159.69L68.35,159.69L68.35,148.69L68.34,148.7Z" style="fill:rgb(0,82,136);fill-rule:nonzero;"/>
    </g>
    <g transform="matrix(1,0,0,1,-36.87,-148.43)">
        <path d="M82.34,148.7L87.47,159.7L86.28,159.7L84.55,156.08L79.81,156.08L78.1,159.7L76.87,159.7L82.06,148.7L82.34,148.7ZM82.2,151.03L80.32,155.01L84.08,155.01L82.2,151.03Z" style="fill:rgb(0,82,136);fill-rule:nonzero;"/>
    </g>
    <g transform="matrix(1,0,0,1,-36.87,-148.43)">
        <path d="M99.01,150.54L98.16,151.35C97.55,150.75 96.88,150.29 96.15,149.98C95.42,149.67 94.71,149.51 94.02,149.51C93.16,149.51 92.34,149.72 91.56,150.15C90.78,150.57 90.18,151.15 89.75,151.87C89.32,152.59 89.11,153.36 89.11,154.17C89.11,154.98 89.33,155.78 89.78,156.53C90.22,157.28 90.84,157.86 91.62,158.29C92.4,158.72 93.26,158.93 94.19,158.93C95.32,158.93 96.28,158.61 97.06,157.97C97.84,157.33 98.31,156.51 98.45,155.49L94.94,155.49L94.94,154.43L99.68,154.43C99.68,156.13 99.17,157.48 98.17,158.48C97.17,159.48 95.83,159.98 94.16,159.98C92.13,159.98 90.52,159.29 89.33,157.9C88.42,156.83 87.96,155.6 87.96,154.2C87.96,153.16 88.22,152.19 88.74,151.29C89.26,150.39 89.98,149.69 90.89,149.19C91.8,148.69 92.83,148.43 93.98,148.43C94.91,148.43 95.79,148.6 96.61,148.93C97.43,149.27 98.23,149.81 99.02,150.55L99.01,150.54Z" style="fill:rgb(0,82,136);fill-rule:nonzero;"/>
    </g>
    <g transform="matrix(1,0,0,1,-36.87,-148.43)">
        <rect x="102.36" y="148.7" width="1.1" height="11" style="fill:rgb(0,82,136);fill-rule:nonzero;"/>
    </g>
    <g transform="matrix(1,0,0,1,-36.87,-148.43)">
        <path d="M106.75,159.69L106.75,148.69L106.99,148.69L114.31,157.12L114.31,148.69L115.39,148.69L115.39,159.69L115.14,159.69L107.88,151.36L107.88,159.69L106.74,159.69L106.75,159.69Z" style="fill:rgb(0,82,136);fill-rule:nonzero;"/>
    </g>
    <g transform="matrix(1,0,0,1,-36.87,-148.43)">
        <path d="M128.83,150.54L127.98,151.35C127.37,150.75 126.7,150.29 125.97,149.98C125.24,149.67 124.53,149.51 123.84,149.51C122.98,149.51 122.16,149.72 121.38,150.15C120.6,150.57 120,151.15 119.57,151.87C119.14,152.59 118.93,153.36 118.93,154.17C118.93,154.98 119.15,155.78 119.6,156.53C120.04,157.28 120.66,157.86 121.44,158.29C122.22,158.72 123.08,158.93 124.01,158.93C125.14,158.93 126.1,158.61 126.88,157.97C127.66,157.33 128.13,156.51 128.27,155.49L124.76,155.49L124.76,154.43L129.5,154.43C129.5,156.13 128.99,157.48 127.99,158.48C126.99,159.48 125.65,159.98 123.98,159.98C121.95,159.98 120.34,159.29 119.15,157.9C118.24,156.83 117.78,155.6 117.78,154.2C117.78,153.16 118.04,152.19 118.56,151.29C119.08,150.39 119.8,149.69 120.71,149.19C121.62,148.69 122.65,148.43 123.8,148.43C124.73,148.43 125.61,148.6 126.43,148.93C127.25,149.27 128.05,149.81 128.84,150.55L128.83,150.54Z" style="fill:rgb(0,82,136);fill-rule:nonzero;"/>
    </g>
    <g transform="matrix(1,0,0,1,-36.87,-148.43)">
        <path d="M140.64,151.82C141.27,151.82 141.81,152.04 142.26,152.49C142.71,152.94 142.93,153.48 142.93,154.11C142.93,154.74 142.71,155.29 142.26,155.74C141.81,156.19 141.27,156.41 140.64,156.41C140.01,156.41 139.47,156.19 139.02,155.74C138.57,155.29 138.35,154.75 138.35,154.11C138.35,153.47 138.57,152.94 139.02,152.49C139.47,152.04 140.01,151.82 140.64,151.82Z" style="fill:rgb(0,82,136);fill-rule:nonzero;"/>
    </g>
    <g transform="matrix(1,0,0,1,-36.87,-148.43)">
        <path d="M163,150.54L162.15,151.35C161.54,150.75 160.87,150.29 160.14,149.98C159.41,149.67 158.7,149.51 158.01,149.51C157.15,149.51 156.33,149.72 155.55,150.15C154.77,150.57 154.17,151.15 153.74,151.87C153.31,152.59 153.1,153.36 153.1,154.17C153.1,154.98 153.32,155.78 153.77,156.53C154.21,157.28 154.83,157.86 155.61,158.29C156.39,158.72 157.25,158.93 158.18,158.93C159.31,158.93 160.27,158.61 161.05,157.97C161.83,157.33 162.3,156.51 162.44,155.49L158.93,155.49L158.93,154.43L163.67,154.43C163.67,156.13 163.16,157.48 162.16,158.48C161.16,159.48 159.82,159.98 158.15,159.98C156.12,159.98 154.51,159.29 153.32,157.9C152.41,156.83 151.95,155.6 151.95,154.2C151.95,153.16 152.21,152.19 152.73,151.29C153.25,150.39 153.97,149.69 154.88,149.19C155.79,148.69 156.82,148.43 157.97,148.43C158.9,148.43 159.78,148.6 160.6,148.93C161.42,149.27 162.22,149.81 163.01,150.55L163,150.54Z" style="fill:rgb(105,94,74);fill-rule:nonzero;"/>
    </g>
    <g transform="matrix(1,0,0,1,-36.87,-148.43)">
        <path d="M166.25,148.7L168.45,148.7C169.67,148.7 170.5,148.75 170.93,148.85C171.58,149 172.11,149.32 172.52,149.81C172.93,150.3 173.13,150.91 173.13,151.62C173.13,152.22 172.99,152.75 172.71,153.2C172.43,153.65 172.03,154 171.5,154.23C170.98,154.46 170.25,154.58 169.33,154.59L173.28,159.7L171.92,159.7L167.97,154.59L167.35,154.59L167.35,159.7L166.25,159.7L166.25,148.7ZM167.36,149.77L167.36,153.51L169.25,153.51C169.98,153.52 170.53,153.46 170.88,153.32C171.23,153.18 171.51,152.96 171.7,152.65C171.89,152.34 172,152 172,151.62C172,151.24 171.9,150.92 171.7,150.61C171.5,150.3 171.24,150.09 170.91,149.96C170.59,149.83 170.05,149.77 169.29,149.77L167.35,149.77L167.36,149.77Z" style="fill:rgb(105,94,74);fill-rule:nonzero;"/>
    </g>
    <g transform="matrix(1,0,0,1,-36.87,-148.43)">
        <path d="M180.44,148.7L185.57,159.7L184.38,159.7L182.65,156.08L177.91,156.08L176.2,159.7L174.97,159.7L180.16,148.7L180.44,148.7ZM180.3,151.03L178.42,155.01L182.18,155.01L180.31,151.03L180.3,151.03Z" style="fill:rgb(105,94,74);fill-rule:nonzero;"/>
    </g>
    <g transform="matrix(1,0,0,1,-36.87,-148.43)">
        <path d="M187.42,148.7L189.61,148.7C190.87,148.7 191.71,148.75 192.15,148.86C192.78,149.01 193.29,149.33 193.69,149.81C194.09,150.29 194.29,150.89 194.29,151.62C194.29,152.35 194.1,152.96 193.71,153.43C193.32,153.91 192.79,154.23 192.1,154.39C191.6,154.51 190.67,154.57 189.3,154.57L188.52,154.57L188.52,159.68L187.42,159.68L187.42,148.68L187.42,148.7ZM188.52,149.77L188.52,153.5L190.38,153.52C191.13,153.52 191.68,153.45 192.03,153.31C192.38,153.17 192.65,152.95 192.85,152.65C193.05,152.34 193.15,152 193.15,151.62C193.15,151.24 193.05,150.91 192.85,150.61C192.65,150.31 192.39,150.09 192.06,149.96C191.73,149.83 191.2,149.77 190.46,149.77L188.52,149.77Z" style="fill:rgb(105,94,74);fill-rule:nonzero;"/>
    </g>
    <g transform="matrix(1,0,0,1,-36.87,-148.43)">
        <path d="M196.62,148.7L197.72,148.7L197.72,153.31L203.32,153.31L203.32,148.7L204.42,148.7L204.42,159.7L203.32,159.7L203.32,154.39L197.72,154.39L197.72,159.7L196.62,159.7L196.62,148.7Z" style="fill:rgb(105,94,74);fill-rule:nonzero;"/>
    </g>
    <g transform="matrix(1,0,0,1,-36.87,-148.43)">
        <rect x="207.4" y="148.7" width="1.1" height="11" style="fill:rgb(105,94,74);fill-rule:nonzero;"/>
    </g>
    <g transform="matrix(1,0,0,1,-36.87,-148.43)">
        <path d="M221.71,150.74L220.84,151.41C220.36,150.79 219.79,150.31 219.12,149.99C218.45,149.67 217.71,149.51 216.91,149.51C216.03,149.51 215.22,149.72 214.47,150.14C213.72,150.56 213.14,151.13 212.73,151.84C212.32,152.55 212.11,153.35 212.11,154.24C212.11,155.58 212.57,156.7 213.49,157.6C214.41,158.5 215.57,158.94 216.97,158.94C218.51,158.94 219.8,158.34 220.83,157.13L221.7,157.79C221.15,158.49 220.47,159.03 219.65,159.41C218.83,159.79 217.91,159.98 216.9,159.98C214.98,159.98 213.46,159.34 212.35,158.06C211.42,156.98 210.95,155.67 210.95,154.14C210.95,152.53 211.51,151.18 212.64,150.08C213.77,148.98 215.18,148.43 216.88,148.43C217.91,148.43 218.83,148.63 219.66,149.04C220.49,149.45 221.16,150.02 221.69,150.75L221.71,150.74Z" style="fill:rgb(105,94,74);fill-rule:nonzero;"/>
    </g>
    <g transform="matrix(1,0,0,1,-36.87,-148.43)">
        <path d="M223.55,157.64L224.48,157.08C225.14,158.29 225.9,158.9 226.76,158.9C227.13,158.9 227.47,158.81 227.8,158.64C228.13,158.47 228.37,158.24 228.54,157.95C228.71,157.66 228.79,157.35 228.79,157.03C228.79,156.66 228.67,156.3 228.42,155.95C228.08,155.46 227.45,154.87 226.54,154.19C225.62,153.5 225.05,153 224.83,152.69C224.44,152.17 224.25,151.61 224.25,151.01C224.25,150.53 224.37,150.1 224.59,149.7C224.82,149.31 225.14,149 225.56,148.77C225.98,148.54 226.43,148.43 226.92,148.43C227.44,148.43 227.92,148.56 228.37,148.81C228.82,149.06 229.3,149.54 229.8,150.23L228.9,150.91C228.49,150.36 228.13,150 227.84,149.83C227.55,149.66 227.23,149.57 226.89,149.57C226.45,149.57 226.08,149.7 225.8,149.97C225.52,150.24 225.38,150.57 225.38,150.96C225.38,151.2 225.43,151.43 225.53,151.66C225.63,151.88 225.81,152.13 226.08,152.39C226.22,152.53 226.7,152.9 227.5,153.49C228.45,154.19 229.1,154.82 229.46,155.37C229.81,155.92 229.99,156.47 229.99,157.02C229.99,157.82 229.69,158.51 229.08,159.1C228.47,159.69 227.74,159.98 226.87,159.98C226.2,159.98 225.6,159.8 225.05,159.45C224.5,159.1 224.01,158.5 223.55,157.66L223.55,157.64Z" style="fill:rgb(105,94,74);fill-rule:nonzero;"/>
    </g>
    <g transform="matrix(1,0,0,1,-36.87,-148.43)">
        <path d="M241.38,151.82C242.01,151.82 242.55,152.04 243,152.49C243.45,152.94 243.67,153.48 243.67,154.11C243.67,154.74 243.45,155.29 243,155.74C242.55,156.19 242.01,156.41 241.38,156.41C240.75,156.41 240.21,156.19 239.76,155.74C239.31,155.29 239.09,154.75 239.09,154.11C239.09,153.47 239.31,152.94 239.76,152.49C240.21,152.04 240.75,151.82 241.38,151.82Z" style="fill:rgb(0,82,136);fill-rule:nonzero;"/>
    </g>
    <g transform="matrix(1,0,0,1,-36.87,-148.43)">
        <path d="M253.12,148.7L255.31,148.7C256.57,148.7 257.41,148.75 257.85,148.86C258.48,149.01 258.99,149.33 259.39,149.81C259.79,150.29 259.99,150.89 259.99,151.62C259.99,152.35 259.8,152.96 259.41,153.43C259.02,153.91 258.49,154.23 257.8,154.39C257.3,154.51 256.37,154.57 255,154.57L254.22,154.57L254.22,159.68L253.12,159.68L253.12,148.68L253.12,148.7ZM254.21,149.77L254.21,153.5L256.07,153.52C256.82,153.52 257.37,153.45 257.72,153.31C258.07,153.17 258.34,152.95 258.54,152.65C258.74,152.34 258.84,152 258.84,151.62C258.84,151.24 258.74,150.91 258.54,150.61C258.34,150.31 258.08,150.09 257.75,149.96C257.42,149.83 256.89,149.77 256.15,149.77L254.21,149.77Z" style="fill:rgb(0,82,136);fill-rule:nonzero;"/>
    </g>
    <g transform="matrix(1,0,0,1,-36.87,-148.43)">
        <path d="M261.77,148.7L263.97,148.7C265.19,148.7 266.02,148.75 266.45,148.85C267.1,149 267.63,149.32 268.04,149.81C268.45,150.3 268.65,150.91 268.65,151.62C268.65,152.22 268.51,152.75 268.23,153.2C267.95,153.65 267.55,154 267.02,154.23C266.5,154.46 265.77,154.58 264.85,154.59L268.8,159.7L267.44,159.7L263.49,154.59L262.87,154.59L262.87,159.7L261.77,159.7L261.77,148.7ZM262.88,149.77L262.88,153.51L264.77,153.51C265.5,153.52 266.05,153.46 266.4,153.32C266.75,153.18 267.03,152.96 267.22,152.65C267.41,152.34 267.52,152 267.52,151.62C267.52,151.24 267.42,150.92 267.22,150.61C267.02,150.3 266.76,150.09 266.43,149.96C266.1,149.83 265.57,149.77 264.81,149.77L262.87,149.77L262.88,149.77Z" style="fill:rgb(0,82,136);fill-rule:nonzero;"/>
    </g>
    <g transform="matrix(1,0,0,1,-36.87,-148.43)">
        <rect x="271.62" y="148.7" width="1.1" height="11" style="fill:rgb(0,82,136);fill-rule:nonzero;"/>
    </g>
    <g transform="matrix(1,0,0,1,-36.87,-148.43)">
        <path d="M276.01,159.69L276.01,148.69L276.25,148.69L283.57,157.12L283.57,148.69L284.65,148.69L284.65,159.69L284.4,159.69L277.14,151.36L277.14,159.69L276,159.69L276.01,159.69Z" style="fill:rgb(0,82,136);fill-rule:nonzero;"/>
    </g>
    <g transform="matrix(1,0,0,1,-36.87,-148.43)">
        <path d="M287,149.77L287,148.69L293.02,148.69L293.02,149.77L290.57,149.77L290.57,159.69L289.45,159.69L289.45,149.77L287,149.77Z" style="fill:rgb(0,82,136);fill-rule:nonzero;"/>
    </g>
    <g transform="matrix(1,0,0,1,-36.87,-148.43)">
        <rect x="295.22" y="148.7" width="1.1" height="11" style="fill:rgb(0,82,136);fill-rule:nonzero;"/>
    </g>
    <g transform="matrix(1,0,0,1,-36.87,-148.43)">
        <path d="M299.61,159.69L299.61,148.69L299.85,148.69L307.17,157.12L307.17,148.69L308.25,148.69L308.25,159.69L308,159.69L300.74,151.36L300.74,159.69L299.6,159.69L299.61,159.69Z" style="fill:rgb(0,82,136);fill-rule:nonzero;"/>
    </g>
    <g transform="matrix(1,0,0,1,-36.87,-148.43)">
        <path d="M321.38,150.54L320.53,151.35C319.92,150.75 319.24,150.29 318.52,149.98C317.79,149.67 317.08,149.51 316.39,149.51C315.53,149.51 314.71,149.72 313.93,150.15C313.15,150.57 312.55,151.15 312.12,151.87C311.69,152.59 311.48,153.36 311.48,154.17C311.48,154.98 311.7,155.78 312.15,156.53C312.59,157.28 313.21,157.86 313.99,158.29C314.77,158.72 315.63,158.93 316.56,158.93C317.69,158.93 318.65,158.61 319.43,157.97C320.21,157.33 320.68,156.51 320.82,155.49L317.31,155.49L317.31,154.43L322.05,154.43C322.05,156.13 321.54,157.48 320.54,158.48C319.54,159.48 318.2,159.98 316.53,159.98C314.5,159.98 312.89,159.29 311.7,157.9C310.79,156.83 310.33,155.6 310.33,154.2C310.33,153.16 310.59,152.19 311.11,151.29C311.63,150.39 312.35,149.69 313.26,149.19C314.17,148.69 315.2,148.43 316.35,148.43C317.28,148.43 318.16,148.6 318.98,148.93C319.8,149.27 320.6,149.81 321.39,150.55L321.38,150.54Z" style="fill:rgb(0,82,136);fill-rule:nonzero;"/>
    </g>
</svg>
